<svg xmlns="http://www.w3.org/2000/svg" viewBox="0 0 17.98 10.96"><defs><style>.cls-1{fill:#fff}</style></defs><g id="レイヤー_2" data-name="レイヤー 2"><path class="cls-1" d="M9 0C4.49 0 1.1 1.67 1.1 3.73a1.36 1.36 0 0 0 .36.88C2.32 3 5.14 1.74 9 1.74S15.67 3 16.52 4.61a1.36 1.36 0 0 0 .36-.88C16.88 1.67 13.49 0 9 0zm-.39 7.72L6 5.84v1.65C3.05 7 .82 5.9.1 4.52a2.92 2.92 0 0 0 .69 2.6C2.08 8.63 4.07 9.14 6 9.44V11l1.81-1.36L9.56 8.4zm.88 1.93h.68a14.86 14.86 0 0 0 5.37-1.23 5.43 5.43 0 0 0 1.66-1.3 2.94 2.94 0 0 0 .7-2.55.43.43 0 0 0 0-.05C17.15 5.9 15 7 12.14 7.47z" id="icon"/></g></svg>