<svg id="レイヤー_1" data-name="レイヤー 1" xmlns="http://www.w3.org/2000/svg" width="23.32" height="23.14" viewBox="0 0 23.32 23.14"><defs><style>.cls-1,.cls-3{fill:none}.cls-1{stroke:#fff;stroke-linecap:round;stroke-linejoin:round}.cls-2{fill:#fff}.cls-3{stroke:#003d7c}</style></defs><g id="マイリバ各TOP_59-PC_未設定時_" data-name="マイリバ各TOP 59-PC 未設定時"><g id="Group"><path id="Combined-Shape" class="cls-1" d="M25.43 8.11v17.11l-.28-.09" transform="translate(-2.62 -2.58)"/></g></g><g id="マイリバ各TOP_59-PC_未設定時_2" data-name="マイリバ各TOP 59-PC 未設定時 2"><g id="Group-2"><path id="Combined-Shape-2" class="cls-2" d="M25.43 25.22l-.28-.09C17.92 22.83 10.72 16.62 6 9.74 4.19 7 3.1 4.64 3.12 3.49c0-.71.85-.58 3 1.11 5.31 4.22 11.67 5.42 19 3.59l.31-.08z" transform="translate(-2.62 -2.58)"/></g></g><g id="マイリバ各TOP_59-PC_未設定時_3" data-name="マイリバ各TOP 59-PC 未設定時 3"><g id="Group-3"><path id="Combined-Shape-3" class="cls-3" d="M25.43 25.22l-.28-.09C17.92 22.83 10.72 16.62 6 9.74 4.19 7 3.1 4.64 3.12 3.49c0-.71.85-.58 3 1.11 5.31 4.22 11.67 5.42 19 3.59l.31-.08" transform="translate(-2.62 -2.58)"/></g></g></svg>