<svg id="レイヤー_1" data-name="レイヤー 1" xmlns="http://www.w3.org/2000/svg" width="28.55" height="28.32" viewBox="0 0 28.55 28.32"><defs><style>.cls-1,.cls-3{fill:none}.cls-1{stroke:#fff;stroke-linecap:round;stroke-linejoin:round}.cls-2{fill:#fff}.cls-3{stroke:#ddd}</style></defs><g id="マイリバ各TOP_59-PC_未設定時_" data-name="マイリバ各TOP_59-PC（未設定時）"><g id="Group"><path id="Combined-Shape" class="cls-1" d="M28.05 33.38v21.13l-.35-.11" transform="translate(0 -26.68)"/></g></g><g id="マイリバ各TOP_59-PC_未設定時_2" data-name="マイリバ各TOP_59-PC（未設定時）"><g id="Group-2" data-name="Group"><path id="Combined-Shape-2" data-name="Combined-Shape" class="cls-2" d="M28.05 54.51l-.35-.11c-8.93-2.84-17.82-10.51-23.62-19C1.82 32 .48 29.1.5 27.72c0-.92 1.05-.76 3.68 1.33 6.56 5.21 14.41 6.69 23.49 4.43l.38-.1z" transform="translate(0 -26.68)"/></g></g><g id="マイリバ各TOP_59-PC_未設定時_3" data-name="マイリバ各TOP_59-PC（未設定時）"><g id="Group-3" data-name="Group"><path id="Combined-Shape-3" data-name="Combined-Shape" class="cls-3" d="M28.05 54.51l-.35-.11c-8.93-2.84-17.82-10.51-23.62-19C1.82 32 .48 29.1.5 27.72c0-.92 1.05-.76 3.68 1.33 6.56 5.21 14.41 6.69 23.49 4.43l.38-.1" transform="translate(0 -26.68)"/></g></g></svg>