<svg id="レイヤー_1" data-name="レイヤー 1" xmlns="http://www.w3.org/2000/svg" width="28.55" height="28.33" viewBox="0 0 28.55 28.33"><defs><style>.cls-1,.cls-3{fill:none;stroke:#e34563}.cls-1{stroke-linecap:round;stroke-linejoin:round}.cls-2{fill:#e34563}</style></defs><g id="マイリバ各TOP_59-PC_未設定時_" data-name="マイリバ各TOP 59-PC 未設定時"><g id="Group"><path id="Combined-Shape" class="cls-1" d="M28.05 6.69v21.13l-.35-.11" transform="translate(0 .01)"/></g></g><g id="マイリバ各TOP_59-PC_未設定時_2" data-name="マイリバ各TOP 59-PC 未設定時 2"><g id="Group-2"><path id="Combined-Shape-2" class="cls-2" d="M28.05 27.82l-.35-.11c-8.93-2.84-17.82-10.51-23.62-19C1.82 5.31.48 2.41.5 1 .5.11 1.55.27 4.18 2.36c6.56 5.21 14.41 6.69 23.49 4.43l.38-.1z" transform="translate(0 .01)"/></g></g><g id="マイリバ各TOP_59-PC_未設定時_3" data-name="マイリバ各TOP 59-PC 未設定時 3"><g id="Group-3"><path id="Combined-Shape-3" class="cls-3" d="M28.05 27.82l-.35-.11c-8.93-2.84-17.82-10.51-23.62-19C1.82 5.31.48 2.41.5 1 .5.11 1.55.27 4.18 2.36c6.56 5.21 14.41 6.69 23.49 4.43l.38-.1" transform="translate(0 .01)"/></g></g></svg>